<svg width="200" height="208" viewBox="0 0 200 208" fill="none" xmlns="http://www.w3.org/2000/svg">
<path fill-rule="evenodd" clip-rule="evenodd" d="M126.81 21.5892V34.5883C126.81 36.2865 128.187 37.6633 129.885 37.6633C131.583 37.6633 132.96 36.2865 132.96 34.5883V21.5892C132.96 19.8909 131.583 18.5142 129.885 18.5142C128.187 18.5142 126.81 19.8909 126.81 21.5892ZM129.577 81.18C140.616 81.18 149.565 72.2313 149.565 61.1925C149.565 50.1537 140.616 41.205 129.577 41.205C118.539 41.205 109.59 50.1537 109.59 61.1925C109.59 72.2313 118.539 81.18 129.577 81.18ZM89.9742 63.345H102.973C104.672 63.345 106.048 61.9683 106.048 60.27C106.048 58.5717 104.672 57.195 102.973 57.195H89.9742C88.276 57.195 86.8992 58.5717 86.8992 60.27C86.8992 61.9683 88.276 63.345 89.9742 63.345ZM169.245 63.345H156.246C154.548 63.345 153.171 61.9683 153.171 60.27C153.171 58.5717 154.548 57.195 156.246 57.195H169.245C170.943 57.195 172.32 58.5717 172.32 60.27C172.32 61.9683 170.943 63.345 169.245 63.345ZM126.81 100.86V87.861C126.81 86.1627 128.187 84.786 129.885 84.786C131.583 84.786 132.96 86.1627 132.96 87.861V100.86C132.96 102.558 131.583 103.935 129.885 103.935C128.187 103.935 126.81 102.558 126.81 100.86ZM99.6168 35.1457L108.809 44.3374C110.009 45.5382 111.956 45.5382 113.157 44.3374C114.358 43.1365 114.358 41.1895 113.157 39.9887L103.966 30.797C102.765 29.5961 100.818 29.5961 99.6168 30.797C98.416 31.9978 98.416 33.9448 99.6168 35.1457ZM155.67 91.1986L146.478 82.0069C145.277 80.806 145.277 78.859 146.478 77.6582C147.679 76.4573 149.626 76.4573 150.827 77.6582L160.018 86.8499C161.219 88.0507 161.219 89.9977 160.018 91.1986C158.818 92.3994 156.871 92.3994 155.67 91.1986ZM155.009 31.2318L145.818 40.4235C144.617 41.6244 144.617 43.5714 145.818 44.7722C147.018 45.9731 148.966 45.9731 150.166 44.7722L159.358 35.5805C160.559 34.3797 160.559 32.4327 159.358 31.2318C158.157 30.031 156.21 30.031 155.009 31.2318ZM98.9564 87.2847L108.148 78.093C109.349 76.8922 111.296 76.8922 112.497 78.093C113.698 79.2939 113.698 81.2409 112.497 82.4418L103.305 91.6335C102.104 92.8343 100.157 92.8343 98.9564 91.6335C97.7556 90.4326 97.7556 88.4856 98.9564 87.2847Z" fill="url(#paint0_linear)"/>
<path fill-rule="evenodd" clip-rule="evenodd" d="M47.29 87.0386C27.8988 89.8477 13 106.585 13 126.812C13 149.007 30.9391 167 53.0682 167H135.648C162.904 167 185 144.838 185 117.5C185 90.1619 162.904 68 135.648 68C131.759 68 127.975 68.4511 124.346 69.304C116.874 57.6914 103.835 50 89 50C67.4827 50 49.7446 66.1809 47.29 87.0386Z" fill="url(#paint1_linear)"/>
<defs>
<linearGradient id="paint0_linear" x1="86.8992" y1="18.5142" x2="86.8992" y2="103.935" gradientUnits="userSpaceOnUse">
<stop stop-color="#FFFCC9"/>
<stop offset="1" stop-color="#FFF799"/>
</linearGradient>
<linearGradient id="paint1_linear" x1="13" y1="50" x2="13" y2="167" gradientUnits="userSpaceOnUse">
<stop stop-color="#A9D9FF"/>
<stop offset="1" stop-color="#7AC5FF"/>
</linearGradient>
</defs>
</svg>
