<svg height="480pt" viewBox="0 -143 480 479" width="480pt" xmlns="http://www.w3.org/2000/svg"><g fill="#b7f9fe"><path d="m356 48.535156c-20.355469.390625-40.644531-2.40625-60.136719-8.285156-18.117187-5.507812-36.996093-8.113281-55.925781-7.714844-18.90625-.394531-37.753906 2.207032-55.839844 7.714844-19.480468 5.878906-39.757812 8.675781-60.097656 8.285156-20.351562.390625-40.640625-2.40625-60.128906-8.285156-18.097656-5.507812-36.957032-8.109375-55.871094-7.714844-4.417969 0-8-3.582031-8-8 0-4.417968 3.582031-8 8-8 20.347656-.386718 40.636719 2.40625 60.121094 8.289063 18.101562 5.503906 36.960937 8.109375 55.878906 7.710937 18.902344.398438 37.75-2.207031 55.839844-7.710937 19.476562-5.878907 39.753906-8.675781 60.097656-8.289063 20.355469-.386718 40.648438 2.410156 60.140625 8.289063 18.117187 5.507812 36.992187 8.109375 55.921875 7.710937 18.917969.398438 37.78125-2.207031 55.886719-7.710937 19.484375-5.878907 39.765625-8.675781 60.113281-8.289063 4.417969 0 8 3.582032 8 8 0 4.417969-3.582031 8-8 8-18.917969-.394531-37.78125 2.207032-55.886719 7.714844-19.484375 5.875-39.765625 8.671875-60.113281 8.285156zm0 0"/><path d="m356 96.535156c-20.355469.390625-40.644531-2.40625-60.136719-8.285156-18.117187-5.507812-36.996093-8.113281-55.925781-7.714844-18.90625-.394531-37.753906 2.207032-55.839844 7.714844-19.480468 5.878906-39.757812 8.675781-60.097656 8.285156-20.351562.390625-40.640625-2.40625-60.128906-8.285156-18.097656-5.507812-36.957032-8.109375-55.871094-7.714844-4.417969 0-8-3.582031-8-8 0-4.417968 3.582031-8 8-8 20.347656-.386718 40.636719 2.40625 60.121094 8.289063 18.101562 5.503906 36.960937 8.109375 55.878906 7.710937 18.902344.398438 37.75-2.207031 55.839844-7.710937 19.476562-5.878907 39.753906-8.675781 60.097656-8.289063 20.355469-.386718 40.648438 2.410156 60.140625 8.289063 18.117187 5.507812 36.992187 8.109375 55.921875 7.710937 18.917969.398438 37.78125-2.207031 55.886719-7.710937 19.484375-5.878907 39.765625-8.675781 60.113281-8.289063 4.417969 0 8 3.582032 8 8 0 4.417969-3.582031 8-8 8-18.917969-.394531-37.78125 2.207032-55.886719 7.714844-19.484375 5.875-39.765625 8.671875-60.113281 8.285156zm0 0"/><path d="m356 144.535156c-20.355469.390625-40.644531-2.40625-60.136719-8.285156-18.117187-5.507812-36.996093-8.113281-55.925781-7.714844-18.90625-.394531-37.753906 2.207032-55.839844 7.714844-19.480468 5.878906-39.757812 8.675781-60.097656 8.285156-20.351562.390625-40.640625-2.40625-60.128906-8.285156-18.097656-5.507812-36.957032-8.109375-55.871094-7.714844-4.417969 0-8-3.582031-8-8 0-4.417968 3.582031-8 8-8 20.347656-.386718 40.636719 2.40625 60.121094 8.289063 18.101562 5.503906 36.960937 8.109375 55.878906 7.710937 18.902344.398438 37.75-2.207031 55.839844-7.710937 19.476562-5.878907 39.753906-8.675781 60.097656-8.289063 20.355469-.386718 40.648438 2.410156 60.140625 8.289063 18.117187 5.507812 36.992187 8.109375 55.921875 7.710937 18.917969.398438 37.78125-2.207031 55.886719-7.710937 19.484375-5.878907 39.765625-8.675781 60.113281-8.289063 4.417969 0 8 3.582032 8 8 0 4.417969-3.582031 8-8 8-18.917969-.394531-37.78125 2.207032-55.886719 7.714844-19.484375 5.875-39.765625 8.671875-60.113281 8.285156zm0 0"/><path d="m356 192.535156c-20.355469.390625-40.644531-2.40625-60.136719-8.285156-18.117187-5.507812-36.996093-8.113281-55.925781-7.714844-18.90625-.394531-37.753906 2.207032-55.839844 7.714844-19.480468 5.878906-39.757812 8.675781-60.097656 8.285156-20.351562.390625-40.640625-2.40625-60.128906-8.285156-18.097656-5.507812-36.957032-8.109375-55.871094-7.714844-4.417969 0-8-3.582031-8-8 0-4.417968 3.582031-8 8-8 20.347656-.386718 40.636719 2.40625 60.121094 8.289063 18.101562 5.503906 36.960937 8.109375 55.878906 7.710937 18.902344.398438 37.75-2.207031 55.839844-7.710937 19.476562-5.878907 39.753906-8.675781 60.097656-8.289063 20.355469-.386718 40.648438 2.410156 60.140625 8.289063 18.117187 5.507812 36.992187 8.109375 55.921875 7.710937 18.917969.398438 37.78125-2.207031 55.886719-7.710937 19.484375-5.878907 39.765625-8.675781 60.113281-8.289063 4.417969 0 8 3.582032 8 8 0 4.417969-3.582031 8-8 8-18.917969-.394531-37.78125 2.207032-55.886719 7.714844-19.484375 5.875-39.765625 8.671875-60.113281 8.285156zm0 0"/><path d="m472 16.535156c-20.359375-.386718-40.652344 2.410156-60.144531 8.289063-18.09375 5.503906-36.945313 8.105469-55.855469 7.710937-18.917969.394532-37.78125-2.207031-55.886719-7.710937-19.503906-5.882813-39.808593-8.679688-60.175781-8.289063-20.347656-.386718-40.625 2.410156-60.105469 8.289063-18.085937 5.503906-36.929687 8.105469-55.832031 7.710937-18.914062.398438-37.773438-2.207031-55.871094-7.710937-19.488281-5.882813-39.777344-8.679688-60.128906-8.289063-4.417969 0-8 3.582032-8 8 0 4.417969 3.582031 8 8 8 18.910156-.394531 37.765625 2.207032 55.863281 7.714844 19.492188 5.878906 39.78125 8.675781 60.136719 8.285156 20.34375.390625 40.625-2.40625 60.105469-8.285156 18.085937-5.503906 36.929687-8.109375 55.832031-7.714844 18.921875-.394531 37.785156 2.207032 55.894531 7.714844 19.5 5.882812 39.800781 8.679688 60.167969 8.285156 20.359375.390625 40.652344-2.40625 60.144531-8.285156 18.09375-5.503906 36.945313-8.105469 55.855469-7.714844 4.417969 0 8-3.582031 8-8 0-4.417968-3.582031-8-8-8zm0 0"/><path d="m472 64.535156c-20.359375-.386718-40.652344 2.410156-60.144531 8.289063-18.09375 5.503906-36.945313 8.105469-55.855469 7.710937-18.917969.394532-37.78125-2.207031-55.886719-7.710937-19.503906-5.882813-39.808593-8.679688-60.175781-8.289063-20.347656-.386718-40.625 2.410156-60.105469 8.289063-18.085937 5.503906-36.929687 8.105469-55.832031 7.710937-18.914062.398438-37.773438-2.207031-55.871094-7.710937-19.488281-5.882813-39.777344-8.679688-60.128906-8.289063-4.417969 0-8 3.582032-8 8 0 4.417969 3.582031 8 8 8 18.910156-.394531 37.765625 2.207032 55.863281 7.714844 19.492188 5.878906 39.78125 8.675781 60.136719 8.285156 20.34375.390625 40.625-2.40625 60.105469-8.285156 18.085937-5.503906 36.929687-8.109375 55.832031-7.714844 18.921875-.394531 37.785156 2.207032 55.894531 7.714844 19.5 5.882812 39.800781 8.679688 60.167969 8.285156 20.359375.390625 40.652344-2.40625 60.144531-8.285156 18.09375-5.503906 36.945313-8.105469 55.855469-7.714844 4.417969 0 8-3.582031 8-8 0-4.417968-3.582031-8-8-8zm0 0"/><path d="m472 112.535156c-20.359375-.386718-40.652344 2.410156-60.144531 8.289063-18.09375 5.503906-36.945313 8.105469-55.855469 7.710937-18.917969.394532-37.78125-2.207031-55.886719-7.710937-19.503906-5.882813-39.808593-8.679688-60.175781-8.289063-20.347656-.386718-40.625 2.410156-60.105469 8.289063-18.085937 5.503906-36.929687 8.105469-55.832031 7.710937-18.914062.398438-37.773438-2.207031-55.871094-7.710937-19.488281-5.882813-39.777344-8.679688-60.128906-8.289063-4.417969 0-8 3.582032-8 8 0 4.417969 3.582031 8 8 8 18.910156-.394531 37.765625 2.207032 55.863281 7.714844 19.492188 5.878906 39.78125 8.675781 60.136719 8.285156 20.34375.390625 40.625-2.40625 60.105469-8.285156 18.085937-5.503906 36.929687-8.109375 55.832031-7.714844 18.921875-.394531 37.785156 2.207032 55.894531 7.714844 19.5 5.882812 39.800781 8.679688 60.167969 8.285156 20.359375.390625 40.652344-2.40625 60.144531-8.285156 18.09375-5.503906 36.945313-8.105469 55.855469-7.714844 4.417969 0 8-3.582031 8-8 0-4.417968-3.582031-8-8-8zm0 0"/><path d="m472 160.535156c-20.359375-.386718-40.652344 2.410156-60.144531 8.289063-18.09375 5.503906-36.945313 8.105469-55.855469 7.710937-18.917969.394532-37.78125-2.207031-55.886719-7.710937-19.503906-5.882813-39.808593-8.679688-60.175781-8.289063-20.347656-.386718-40.625 2.410156-60.105469 8.289063-18.085937 5.503906-36.929687 8.105469-55.832031 7.710937-18.914062.398438-37.773438-2.207031-55.871094-7.710937-19.488281-5.882813-39.777344-8.679688-60.128906-8.289063-4.417969 0-8 3.582032-8 8 0 4.417969 3.582031 8 8 8 18.910156-.394531 37.765625 2.207032 55.863281 7.714844 19.492188 5.878906 39.78125 8.675781 60.136719 8.285156 20.34375.390625 40.625-2.40625 60.105469-8.285156 18.085937-5.503906 36.929687-8.109375 55.832031-7.714844 18.921875-.394531 37.785156 2.207032 55.894531 7.714844 19.5 5.882812 39.800781 8.679688 60.167969 8.285156 20.359375.390625 40.652344-2.40625 60.144531-8.285156 18.09375-5.503906 36.945313-8.105469 55.855469-7.714844 4.417969 0 8-3.582031 8-8 0-4.417968-3.582031-8-8-8zm0 0"/></g><path d="m356 32.535156c-20.355469.390625-40.644531-2.40625-60.136719-8.285156-18.117187-5.507812-36.996093-8.113281-55.925781-7.714844-18.90625-.394531-37.753906 2.207032-55.839844 7.714844-19.480468 5.878906-39.757812 8.675781-60.097656 8.285156-20.351562.390625-40.640625-2.40625-60.128906-8.285156-18.097656-5.507812-36.957032-8.109375-55.871094-7.714844-4.417969 0-8-3.582031-8-8 0-4.417968 3.582031-8 8-8 20.347656-.386718 40.636719 2.40625 60.121094 8.289063 18.101562 5.503906 36.960937 8.109375 55.878906 7.710937 18.902344.398438 37.75-2.207031 55.839844-7.710937 19.476562-5.878907 39.753906-8.675781 60.097656-8.289063 20.355469-.386718 40.648438 2.410156 60.140625 8.289063 18.117187 5.507812 36.992187 8.109375 55.921875 7.710937 18.917969.398438 37.78125-2.207031 55.886719-7.710937 19.484375-5.878907 39.765625-8.675781 60.113281-8.289063 4.417969 0 8 3.582032 8 8 0 4.417969-3.582031 8-8 8-18.917969-.394531-37.78125 2.207032-55.886719 7.714844-19.484375 5.875-39.765625 8.671875-60.113281 8.285156zm0 0" fill="#60a2d7"/><path d="m356 80.535156c-20.355469.390625-40.644531-2.40625-60.136719-8.285156-18.117187-5.507812-36.996093-8.113281-55.925781-7.714844-18.90625-.394531-37.753906 2.207032-55.839844 7.714844-19.480468 5.878906-39.757812 8.675781-60.097656 8.285156-20.351562.390625-40.640625-2.40625-60.128906-8.285156-18.097656-5.507812-36.957032-8.109375-55.871094-7.714844-4.417969 0-8-3.582031-8-8 0-4.417968 3.582031-8 8-8 20.347656-.386718 40.636719 2.40625 60.121094 8.289063 18.101562 5.503906 36.960937 8.109375 55.878906 7.710937 18.902344.398438 37.75-2.207031 55.839844-7.710937 19.476562-5.878907 39.753906-8.675781 60.097656-8.289063 20.355469-.386718 40.648438 2.410156 60.140625 8.289063 18.117187 5.507812 36.992187 8.109375 55.921875 7.710937 18.917969.398438 37.78125-2.207031 55.886719-7.710937 19.484375-5.878907 39.765625-8.675781 60.113281-8.289063 4.417969 0 8 3.582032 8 8 0 4.417969-3.582031 8-8 8-18.917969-.394531-37.78125 2.207032-55.886719 7.714844-19.484375 5.875-39.765625 8.671875-60.113281 8.285156zm0 0" fill="#60a2d7"/><path d="m356 128.535156c-20.355469.390625-40.644531-2.40625-60.136719-8.285156-18.117187-5.507812-36.996093-8.113281-55.925781-7.714844-18.90625-.394531-37.753906 2.207032-55.839844 7.714844-19.480468 5.878906-39.757812 8.675781-60.097656 8.285156-20.351562.390625-40.640625-2.40625-60.128906-8.285156-18.097656-5.507812-36.957032-8.109375-55.871094-7.714844-4.417969 0-8-3.582031-8-8 0-4.417968 3.582031-8 8-8 20.347656-.386718 40.636719 2.40625 60.121094 8.289063 18.101562 5.503906 36.960937 8.109375 55.878906 7.710937 18.902344.398438 37.75-2.207031 55.839844-7.710937 19.476562-5.878907 39.753906-8.675781 60.097656-8.289063 20.355469-.386718 40.648438 2.410156 60.140625 8.289063 18.117187 5.507812 36.992187 8.109375 55.921875 7.710937 18.917969.398438 37.78125-2.207031 55.886719-7.710937 19.484375-5.878907 39.765625-8.675781 60.113281-8.289063 4.417969 0 8 3.582032 8 8 0 4.417969-3.582031 8-8 8-18.917969-.394531-37.78125 2.207032-55.886719 7.714844-19.484375 5.875-39.765625 8.671875-60.113281 8.285156zm0 0" fill="#60a2d7"/><path d="m356 176.535156c-20.355469.390625-40.644531-2.40625-60.136719-8.285156-18.117187-5.507812-36.996093-8.113281-55.925781-7.714844-18.90625-.394531-37.753906 2.207032-55.839844 7.714844-19.480468 5.878906-39.757812 8.675781-60.097656 8.285156-20.351562.390625-40.640625-2.40625-60.128906-8.285156-18.097656-5.507812-36.957032-8.109375-55.871094-7.714844-4.417969 0-8-3.582031-8-8 0-4.417968 3.582031-8 8-8 20.347656-.386718 40.636719 2.40625 60.121094 8.289063 18.101562 5.503906 36.960937 8.109375 55.878906 7.710937 18.902344.398438 37.75-2.207031 55.839844-7.710937 19.476562-5.878907 39.753906-8.675781 60.097656-8.289063 20.355469-.386718 40.648438 2.410156 60.140625 8.289063 18.117187 5.507812 36.992187 8.109375 55.921875 7.710937 18.917969.398438 37.78125-2.207031 55.886719-7.710937 19.484375-5.878907 39.765625-8.675781 60.113281-8.289063 4.417969 0 8 3.582032 8 8 0 4.417969-3.582031 8-8 8-18.917969-.394531-37.78125 2.207032-55.886719 7.714844-19.484375 5.875-39.765625 8.671875-60.113281 8.285156zm0 0" fill="#60a2d7"/><path d="m472 .535156c-20.359375-.386718-40.652344 2.410156-60.144531 8.289063-18.09375 5.503906-36.945313 8.105469-55.855469 7.710937-18.917969.394532-37.78125-2.207031-55.886719-7.710937-19.503906-5.882813-39.808593-8.679688-60.175781-8.289063-20.347656-.386718-40.625 2.410156-60.105469 8.289063-18.085937 5.503906-36.929687 8.105469-55.832031 7.710937-18.914062.398438-37.773438-2.207031-55.871094-7.710937-19.488281-5.882813-39.777344-8.679688-60.128906-8.289063-4.417969 0-8 3.582032-8 8 0 4.417969 3.582031 8 8 8 18.910156-.394531 37.765625 2.207032 55.863281 7.714844 19.492188 5.878906 39.78125 8.675781 60.136719 8.285156 20.34375.390625 40.625-2.40625 60.105469-8.285156 18.085937-5.503906 36.929687-8.109375 55.832031-7.714844 18.921875-.394531 37.785156 2.207032 55.894531 7.714844 19.5 5.882812 39.800781 8.679688 60.167969 8.285156 20.359375.390625 40.652344-2.40625 60.144531-8.285156 18.09375-5.503906 36.945313-8.105469 55.855469-7.714844 4.417969 0 8-3.582031 8-8 0-4.417968-3.582031-8-8-8zm0 0"/><path d="m472 48.535156c-20.359375-.386718-40.652344 2.410156-60.144531 8.289063-18.09375 5.503906-36.945313 8.105469-55.855469 7.710937-18.917969.394532-37.78125-2.207031-55.886719-7.710937-19.503906-5.882813-39.808593-8.679688-60.175781-8.289063-20.347656-.386718-40.625 2.410156-60.105469 8.289063-18.085937 5.503906-36.929687 8.105469-55.832031 7.710937-18.914062.398438-37.773438-2.207031-55.871094-7.710937-19.488281-5.882813-39.777344-8.679688-60.128906-8.289063-4.417969 0-8 3.582032-8 8 0 4.417969 3.582031 8 8 8 18.910156-.394531 37.765625 2.207032 55.863281 7.714844 19.492188 5.878906 39.78125 8.675781 60.136719 8.285156 20.34375.390625 40.625-2.40625 60.105469-8.285156 18.085937-5.503906 36.929687-8.109375 55.832031-7.714844 18.921875-.394531 37.785156 2.207032 55.894531 7.714844 19.5 5.882812 39.800781 8.679688 60.167969 8.285156 20.359375.390625 40.652344-2.40625 60.144531-8.285156 18.09375-5.503906 36.945313-8.105469 55.855469-7.714844 4.417969 0 8-3.582031 8-8 0-4.417968-3.582031-8-8-8zm0 0"/><path d="m472 96.535156c-20.359375-.386718-40.652344 2.410156-60.144531 8.289063-18.09375 5.503906-36.945313 8.105469-55.855469 7.710937-18.917969.394532-37.78125-2.207031-55.886719-7.710937-19.503906-5.882813-39.808593-8.679688-60.175781-8.289063-20.347656-.386718-40.625 2.410156-60.105469 8.289063-18.085937 5.503906-36.929687 8.105469-55.832031 7.710937-18.914062.398438-37.773438-2.207031-55.871094-7.710937-19.488281-5.882813-39.777344-8.679688-60.128906-8.289063-4.417969 0-8 3.582032-8 8 0 4.417969 3.582031 8 8 8 18.910156-.394531 37.765625 2.207032 55.863281 7.714844 19.492188 5.878906 39.78125 8.675781 60.136719 8.285156 20.34375.390625 40.625-2.40625 60.105469-8.285156 18.085937-5.503906 36.929687-8.109375 55.832031-7.714844 18.921875-.394531 37.785156 2.207032 55.894531 7.714844 19.5 5.882812 39.800781 8.679688 60.167969 8.285156 20.359375.390625 40.652344-2.40625 60.144531-8.285156 18.09375-5.503906 36.945313-8.105469 55.855469-7.714844 4.417969 0 8-3.582031 8-8 0-4.417968-3.582031-8-8-8zm0 0"/><path d="m472 144.535156c-20.359375-.386718-40.652344 2.410156-60.144531 8.289063-18.09375 5.503906-36.945313 8.105469-55.855469 7.710937-18.917969.394532-37.78125-2.207031-55.886719-7.710937-19.503906-5.882813-39.808593-8.679688-60.175781-8.289063-20.347656-.386718-40.625 2.410156-60.105469 8.289063-18.085937 5.503906-36.929687 8.105469-55.832031 7.710937-18.914062.398438-37.773438-2.207031-55.871094-7.710937-19.488281-5.882813-39.777344-8.679688-60.128906-8.289063-4.417969 0-8 3.582032-8 8 0 4.417969 3.582031 8 8 8 18.910156-.394531 37.765625 2.207032 55.863281 7.714844 19.492188 5.878906 39.78125 8.675781 60.136719 8.285156 20.34375.390625 40.625-2.40625 60.105469-8.285156 18.085937-5.503906 36.929687-8.109375 55.832031-7.714844 18.921875-.394531 37.785156 2.207032 55.894531 7.714844 19.5 5.882812 39.800781 8.679688 60.167969 8.285156 20.359375.390625 40.652344-2.40625 60.144531-8.285156 18.09375-5.503906 36.945313-8.105469 55.855469-7.714844 4.417969 0 8-3.582031 8-8 0-4.417968-3.582031-8-8-8zm0 0"/></svg>