<svg width="200" height="228" viewBox="0 0 200 228" fill="none" xmlns="http://www.w3.org/2000/svg">
<path fill-rule="evenodd" clip-rule="evenodd" d="M47.29 79.0386C49.7446 58.1809 67.4827 42 89 42C103.835 42 116.874 49.6914 124.346 61.304C127.975 60.4511 131.759 60 135.648 60C162.904 60 185 82.1619 185 109.5C185 136.838 162.904 159 135.648 159H53.0682C30.9391 159 13 141.007 13 118.812C13 98.5847 27.8988 81.8477 47.29 79.0386Z" fill="url(#paint0_linear)"/>
<path d="M44.3625 185.266L36.7386 200.514C35.5036 202.984 36.5047 205.987 38.9746 207.222C41.4445 208.457 44.4479 207.456 45.6828 204.986L53.3068 189.738C54.5417 187.268 53.5406 184.265 51.0707 183.03C48.6008 181.795 45.5975 182.796 44.3625 185.266Z" fill="#A8D9FF"/>
<path d="M94.8646 185.266L87.2407 200.514C86.0057 202.984 87.0068 205.987 89.4767 207.222C91.9466 208.457 94.95 207.456 96.1849 204.986L103.809 189.738C105.044 187.268 104.043 184.265 101.573 183.03C99.1029 181.795 96.0996 182.796 94.8646 185.266Z" fill="#A8D9FF"/>
<path d="M74.7889 174.053L67.1649 189.301C65.93 191.771 66.9311 194.774 69.401 196.009C71.8709 197.244 74.8742 196.243 76.1092 193.773L83.7331 178.525C84.9681 176.055 83.967 173.052 81.4971 171.817C79.0272 170.582 76.0238 171.583 74.7889 174.053Z" fill="#A8D9FF"/>
<path d="M125.291 174.053L117.667 189.301C116.432 191.771 117.433 194.774 119.903 196.009C122.373 197.244 125.376 196.243 126.611 193.773L134.235 178.525C135.47 176.055 134.469 173.052 131.999 171.817C129.529 170.582 126.526 171.583 125.291 174.053Z" fill="#A8D9FF"/>
<path d="M89.1518 143.764L81.5279 159.012C80.2929 161.482 81.294 164.485 83.7639 165.72C86.2338 166.955 89.2372 165.954 90.4721 163.484L98.0961 148.236C99.331 145.766 98.3299 142.763 95.86 141.528C93.3901 140.293 90.3868 141.294 89.1518 143.764Z" fill="#A8D9FF"/>
<path d="M140.152 143.764L132.528 159.012C131.293 161.482 132.294 164.485 134.764 165.72C137.234 166.955 140.237 165.954 141.472 163.484L149.096 148.236C150.331 145.766 149.33 142.763 146.86 141.528C144.39 140.293 141.387 141.294 140.152 143.764Z" fill="#A8D9FF"/>
<path d="M109.152 154.764L101.528 170.012C100.293 172.482 101.294 175.485 103.764 176.72C106.234 177.955 109.237 176.954 110.472 174.484L118.096 159.236C119.331 156.766 118.33 153.763 115.86 152.528C113.39 151.293 110.387 152.294 109.152 154.764Z" fill="#A8D9FF"/>
<path d="M59.1518 154.764L51.5279 170.012C50.2929 172.482 51.294 175.485 53.7639 176.72C56.2338 177.955 59.2372 176.954 60.4721 174.484L68.0961 159.236C69.331 156.766 68.3299 153.763 65.86 152.528C63.3901 151.293 60.3868 152.294 59.1518 154.764Z" fill="#A8D9FF"/>
<defs>
<linearGradient id="paint0_linear" x1="13" y1="42" x2="13" y2="159" gradientUnits="userSpaceOnUse">
<stop stop-color="#A9D9FF"/>
<stop offset="1" stop-color="#7AC5FF"/>
</linearGradient>
</defs>
</svg>
