<svg width="200" height="200" viewBox="0 0 200 200" fill="none" xmlns="http://www.w3.org/2000/svg">
<path fill-rule="evenodd" clip-rule="evenodd" d="M94 35.1044V56.2411C94 59.0025 96.2385 61.2411 99 61.2411C101.761 61.2411 104 59.0025 104 56.2411V35.1044C104 32.343 101.761 30.1044 99 30.1044C96.2385 30.1044 94 32.343 94 35.1044ZM98.5 132C116.449 132 131 117.449 131 99.5C131 81.5507 116.449 67 98.5 67C80.5508 67 66 81.5507 66 99.5C66 117.449 80.5508 132 98.5 132ZM34.1044 103H55.241C58.0024 103 60.241 100.761 60.241 98C60.241 95.2386 58.0024 93 55.241 93H34.1044C31.3429 93 29.1044 95.2386 29.1044 98C29.1044 100.761 31.3429 103 34.1044 103ZM163 103H141.863C139.102 103 136.863 100.761 136.863 98C136.863 95.2386 139.102 93 141.863 93H163C165.761 93 168 95.2386 168 98C168 100.761 165.761 103 163 103ZM94 164V142.863C94 140.102 96.2385 137.863 99 137.863C101.761 137.863 104 140.102 104 142.863V164C104 166.761 101.761 169 99 169C96.2385 169 94 166.761 94 164ZM49.7834 57.1474L64.7294 72.0933C66.682 74.0459 69.8478 74.0459 71.8004 72.0933C73.7531 70.1407 73.7531 66.9749 71.8004 65.0222L56.8545 50.0764C54.902 48.1237 51.7361 48.1237 49.7834 50.0764C47.8308 52.029 47.8308 55.1948 49.7834 57.1474ZM140.926 148.29L125.98 133.345C124.028 131.392 124.028 128.226 125.98 126.273C127.933 124.321 131.099 124.321 133.052 126.273L147.997 141.219C149.95 143.172 149.95 146.338 147.997 148.29C146.045 150.243 142.879 150.243 140.926 148.29ZM139.852 50.7835L124.907 65.7293C122.954 67.682 122.954 70.8478 124.907 72.8004C126.859 74.753 130.025 74.753 131.978 72.8004L146.924 57.8545C148.876 55.9019 148.876 52.7361 146.924 50.7835C144.971 48.8309 141.805 48.8309 139.852 50.7835ZM48.7096 141.926L63.6554 126.981C65.608 125.028 68.7739 125.028 70.7266 126.981C72.6791 128.933 72.6791 132.099 70.7266 134.052L55.7806 148.997C53.828 150.95 50.6622 150.95 48.7096 148.997C46.757 147.045 46.757 143.879 48.7096 141.926Z" fill="url(#paint0_linear)"/>
<defs>
<linearGradient id="paint0_linear" x1="29.1044" y1="30.1044" x2="29.1044" y2="169" gradientUnits="userSpaceOnUse">
<stop stop-color="#FFFCC9"/>
<stop offset="1" stop-color="#FFF799"/>
</linearGradient>
</defs>
</svg>
